# xmcd CD database file
#
# Track frame offsets:
#	150
#	21200
#	43312
#	68762
#	89287
#	134025
#	153050
#	188462
#	204737
#	227575
#	268850
#	299987
#
# Disc length: 4136 seconds
#
# Revision: 1
# Processed by: cddbd v1.5.1PL0 Copyright (c) Steve Scherf et al.
# Submitted via: CDex 1.50
#
DISCID=b310260c
DTITLE=Banco - la storia
DYEAR=1993
DGENRE=Pop
TTITLE0=Nel cielo e nelle altre cose mute
TTITLE1=Il Ragno
TTITLE2=Canto di Primavera
TTITLE3=Fino alla mia porta
TTITLE4=La conquista della posizione eretta
TTITLE5=La danza dei grandi rettili
TTITLE6=750.000 anni fa ... l' amore?
TTITLE7=E' così buono Giovanni, ma ...
TTITLE8=Garofano Rosso
TTITLE9=R.I.P.
TTITLE10=Non mi rompete
TTITLE11=Traccia
EXTD=YEAR: 1993
EXTT0=
EXTT1=
EXTT2=
EXTT3=
EXTT4=
EXTT5=
EXTT6=
EXTT7=
EXTT8=
EXTT9=
EXTT10=
EXTT11=
PLAYORDER=
